<svg xmlns="http://www.w3.org/2000/svg" width="256" height="256" viewBox="0 0 64 64" style="overflow:visible">
<g shape-rendering="crispEdges">
      <circle cx="32" cy="32" r="28" fill="#DBEAFE"></circle>
      
      <rect x="44" y="10" width="8" height="8" fill="#FBBF24"></rect>
      <rect x="46" y="12" width="4" height="4" fill="#FEF08A"></rect>
      <rect x="44" y="8" width="8" height="2" fill="#F59E0B" opacity="0.6"></rect>
      
      <rect x="34" y="16" width="12" height="4" fill="#86EFAC"></rect>
      <rect x="32" y="20" width="16" height="4" fill="#4ADE80"></rect>
      <rect x="32" y="24" width="16" height="4" fill="#16A34A"></rect>
      <rect x="38" y="28" width="4" height="14" fill="#A16207"></rect>
      
      <rect x="10" y="28" width="12" height="4" fill="#86EFAC"></rect>
      <rect x="8" y="32" width="16" height="4" fill="#4ADE80"></rect>
      <rect x="14" y="36" width="4" height="8" fill="#A16207"></rect>
      
      <rect x="22" y="20" width="12" height="4" fill="#86EFAC"></rect>
      <rect x="20" y="24" width="16" height="4" fill="#4ADE80"></rect>
      <rect x="20" y="28" width="16" height="4" fill="#16A34A"></rect>
      <rect x="24" y="32" width="8" height="10" fill="#A16207"></rect>
      <rect x="24" y="32" width="2" height="10" fill="#D6A77A"></rect>
      
      <rect x="6" y="44" width="52" height="4" fill="#92400E"></rect>
      <rect x="6" y="48" width="52" height="2" fill="#78350F"></rect>
      
      <rect x="4" y="40" width="3" height="3" fill="#F472B6"></rect>
      <rect x="50" y="40" width="3" height="3" fill="#FBBF24"></rect>
      <rect x="26" y="42" width="2" height="2" fill="#EC4899"></rect>
      
      <rect x="40" y="22" width="3" height="2" fill="#1D4ED8"></rect>
      <rect x="42" y="21" width="2" height="3" fill="#2563EB"></rect>
    </g>
</svg>