<svg xmlns="http://www.w3.org/2000/svg" width="256" height="256" viewBox="0 0 64 64" style="overflow:visible">
<defs>
  <linearGradient id="icn-gear-g" x1="0" y1="0" x2="1" y2="1">
    <stop offset="0" stop-color="#94A3B8"></stop><stop offset="1" stop-color="#334155"></stop>
  </linearGradient>
  <linearGradient id="icn-gear-g2" x1="0" y1="0" x2="0" y2="1">
    <stop offset="0" stop-color="#94A3B8"></stop><stop offset="1" stop-color="#334155"></stop>
  </linearGradient>
</defs>
      <path d="M 32 4 L 36 6 L 36 14 Q 39 15 41 17 L 47 13 L 51 17 L 47 23 Q 49 25 50 28 L 58 28 L 60 32 L 58 36 L 50 36 Q 49 39 47 41 L 51 47 L 47 51 L 41 47 Q 39 49 36 50 L 36 58 L 32 60 L 28 58 L 28 50 Q 25 49 23 47 L 17 51 L 13 47 L 17 41 Q 15 39 14 36 L 6 36 L 4 32 L 6 28 L 14 28 Q 15 25 17 23 L 13 17 L 17 13 L 23 17 Q 25 15 28 14 L 28 6 Z" fill="url(#icn-gear-g)"></path>
      <circle cx="32" cy="32" r="10" fill="white"></circle>
      <circle cx="32" cy="32" r="5" fill="#334155"></circle>
</svg>