<svg xmlns="http://www.w3.org/2000/svg" width="256" height="256" viewBox="0 0 64 64" style="overflow:visible">
<g shape-rendering="crispEdges">
      <circle cx="32" cy="32" r="28" fill="#BBF7D0"></circle>
      
      <rect x="20" y="8" width="24" height="4" fill="#86EFAC"></rect>
      <rect x="16" y="12" width="32" height="4" fill="#4ADE80"></rect>
      <rect x="12" y="16" width="40" height="4" fill="#4ADE80"></rect>
      <rect x="12" y="20" width="40" height="4" fill="#16A34A"></rect>
      <rect x="16" y="24" width="32" height="4" fill="#16A34A"></rect>
      <rect x="20" y="28" width="24" height="4" fill="#15803D"></rect>
      
      <rect x="18" y="14" width="6" height="2" fill="#DCFCE7"></rect>
      <rect x="40" y="12" width="4" height="2" fill="#DCFCE7"></rect>
      
      <rect x="26" y="32" width="12" height="16" fill="#A16207"></rect>
      <rect x="26" y="32" width="3" height="16" fill="#D6A77A"></rect>
      <rect x="35" y="32" width="3" height="16" fill="#78350F"></rect>
      <rect x="30" y="36" width="4" height="2" fill="#78350F"></rect>
      <rect x="30" y="42" width="4" height="2" fill="#78350F"></rect>
      
      <rect x="12" y="48" width="40" height="4" fill="#92400E"></rect>
      
      <rect x="44" y="32" width="3" height="3" fill="#F472B6"></rect>
      <rect x="47" y="34" width="3" height="3" fill="#C084FC"></rect>
      <rect x="46" y="33" width="2" height="2" fill="#FBBF24"></rect>
      
      <rect x="14" y="12" width="3" height="3" fill="#FACC15"></rect>
    </g>
</svg>