<svg xmlns="http://www.w3.org/2000/svg" width="256" height="256" viewBox="0 0 64 64" style="overflow:visible">
<g shape-rendering="crispEdges">
      <circle cx="32" cy="32" r="28" fill="#FED7AA"></circle>
      
      <rect x="20" y="8" width="24" height="4" fill="#86EFAC"></rect>
      <rect x="16" y="12" width="32" height="4" fill="#4ADE80"></rect>
      <rect x="12" y="16" width="40" height="4" fill="#22C55E"></rect>
      <rect x="12" y="20" width="40" height="4" fill="#22C55E"></rect>
      <rect x="16" y="24" width="32" height="4" fill="#16A34A"></rect>
      <rect x="20" y="28" width="24" height="4" fill="#15803D"></rect>
      
      <rect x="18" y="14" width="4" height="4" fill="#DC2626"></rect>
      <rect x="18" y="14" width="2" height="2" fill="#F87171"></rect>
      <rect x="42" y="16" width="4" height="4" fill="#F59E0B"></rect>
      <rect x="42" y="16" width="2" height="2" fill="#FCD34D"></rect>
      <rect x="30" y="10" width="4" height="4" fill="#DC2626"></rect>
      <rect x="30" y="10" width="2" height="2" fill="#F87171"></rect>
      <rect x="36" y="22" width="4" height="4" fill="#F59E0B"></rect>
      <rect x="36" y="22" width="2" height="2" fill="#FCD34D"></rect>
      <rect x="22" y="22" width="4" height="4" fill="#DC2626"></rect>
      <rect x="22" y="22" width="2" height="2" fill="#F87171"></rect>
      
      <rect x="26" y="32" width="12" height="16" fill="#A16207"></rect>
      <rect x="26" y="32" width="3" height="16" fill="#D6A77A"></rect>
      <rect x="35" y="32" width="3" height="16" fill="#78350F"></rect>
      <rect x="30" y="36" width="4" height="2" fill="#78350F"></rect>
      <rect x="30" y="42" width="4" height="2" fill="#78350F"></rect>
      
      <rect x="12" y="48" width="40" height="4" fill="#92400E"></rect>
      
      <rect x="46" y="40" width="4" height="4" fill="#F59E0B"></rect>
      <rect x="46" y="40" width="2" height="2" fill="#FCD34D"></rect>
      
      <rect x="10" y="18" width="3" height="3" fill="#FBBF24"></rect>
      <rect x="48" y="10" width="3" height="3" fill="#FEF08A"></rect>
    </g>
</svg>