<svg xmlns="http://www.w3.org/2000/svg" width="1024" height="1024" viewBox="0 0 1024 1024">
  <defs>
    <linearGradient id="bg" x1="0" y1="0" x2="1" y2="1">
      <stop offset="0" stop-color="#22C55E"></stop>
      <stop offset="0.5" stop-color="#16A34A"></stop>
      <stop offset="1" stop-color="#14532D"></stop>
    </linearGradient>
    <radialGradient id="bgSheen" cx="0.3" cy="0.15" r="0.7">
      <stop offset="0" stop-color="white" stop-opacity="0.3"></stop>
      <stop offset="1" stop-color="white" stop-opacity="0"></stop>
    </radialGradient>

    <radialGradient id="leaf" cx="0.3" cy="0.2" r="0.95">
      <stop offset="0" stop-color="#F0FDF4"></stop>
      <stop offset="0.35" stop-color="#A7F3D0"></stop>
      <stop offset="0.75" stop-color="#34D399"></stop>
      <stop offset="1" stop-color="#065F46"></stop>
    </radialGradient>
    <radialGradient id="leafHL" cx="0.3" cy="0.3" r="0.4">
      <stop offset="0" stop-color="white" stop-opacity="0.85"></stop>
      <stop offset="1" stop-color="white" stop-opacity="0"></stop>
    </radialGradient>
  </defs>

  
  <rect width="1024" height="1024" rx="232" fill="url(#bg)"></rect>
  <rect width="1024" height="1024" rx="232" fill="url(#bgSheen)"></rect>

  
  <g opacity="0.13" fill="white">
    <circle cx="180" cy="180" r="6"></circle>
    <circle cx="260" cy="280" r="4"></circle>
    <circle cx="140" cy="400" r="5"></circle>
    <circle cx="860" cy="200" r="6"></circle>
    <circle cx="900" cy="340" r="4"></circle>
    <circle cx="780" cy="160" r="5"></circle>
    <circle cx="200" cy="820" r="5"></circle>
    <circle cx="880" cy="800" r="4"></circle>
  </g>

  
  <path d="M 512 820 L 512 480" stroke="#FEF08A" stroke-width="44" stroke-linecap="round" fill="none"></path>
  <path d="M 512 820 L 512 480" stroke="#FACC15" stroke-width="20" stroke-linecap="round" fill="none" opacity="0.6"></path>

  
  <ellipse cx="512" cy="838" rx="220" ry="20" fill="#052e1a" opacity="0.25"></ellipse>
  <ellipse cx="512" cy="820" rx="170" ry="26" fill="#5B3A1E"></ellipse>
  <ellipse cx="512" cy="810" rx="160" ry="14" fill="#7C4A21"></ellipse>
  <ellipse cx="450" cy="812" rx="9" ry="4" fill="#92400E"></ellipse>
  <ellipse cx="540" cy="816" rx="7" ry="3" fill="#92400E"></ellipse>
  <ellipse cx="580" cy="810" rx="9" ry="4" fill="#92400E"></ellipse>

  
  
  <g transform="translate(380 535) rotate(-35)">
    <ellipse cx="0" cy="0" rx="200" ry="105" fill="url(#leaf)"></ellipse>
    <ellipse cx="-40" cy="-25" rx="72" ry="32" fill="url(#leafHL)"></ellipse>
  </g>

  
  <g transform="translate(650 480) rotate(32)">
    <ellipse cx="0" cy="0" rx="225" ry="115" fill="url(#leaf)"></ellipse>
    <ellipse cx="-44" cy="-28" rx="82" ry="36" fill="url(#leafHL)"></ellipse>
  </g>

  
  <ellipse cx="512" cy="450" rx="80" ry="100" fill="url(#leaf)"></ellipse>
  <ellipse cx="490" cy="425" rx="26" ry="40" fill="url(#leafHL)"></ellipse>
</svg>